<?xml version="1.0" encoding="UTF-8"?>
<svg width="48px" height="48px" viewBox="0 0 48 48" version="1.1" xmlns="http://www.w3.org/2000/svg" xmlns:xlink="http://www.w3.org/1999/xlink">
    <!-- Generator: Sketch 59.1 (86144) - https://sketch.com -->
    <title>product_icon_500px</title>
    <desc>Created with Sketch.</desc>
    <g id="product_icon_500px" stroke="none" stroke-width="1" fill="none" fill-rule="evenodd">
        <g id="icon">
            <circle id="Combined-Shape" fill="#F7931A" cx="24" cy="24" r="24"></circle>
            <path d="M33.0144,33.6288 C33.2448012,33.5135994 33.5687979,33.456 33.9864,33.456 C34.4040021,33.456 34.7639985,33.6215983 35.0664,33.9528 C35.3688015,34.2840017 35.52,34.6655978 35.52,35.0976 C35.52,35.8752039 35.2032032,36.4223984 34.5696,36.7392 C33.2159932,37.4880037 31.7688077,38.1215974 30.228,38.64 C28.6871923,39.1584026 26.8440107,39.4176 24.6984,39.4176 C22.5527893,39.4176 20.5584092,39.0648035 18.7152,38.3592 C16.8719908,37.6535965 15.2736068,36.6240068 13.92,35.2704 C11.0399856,32.4479859 9.6,28.6608238 9.6,23.9088 C9.6,19.1567762 11.0399856,15.3696141 13.92,12.5472 C16.713614,9.78238618 20.313578,8.4 24.72,8.4 C26.8512107,8.4 28.6871923,8.65919741 30.228,9.1776 C31.7688077,9.69600259 32.9495959,10.1783978 33.7704,10.6248 C34.5912041,11.0712022 35.0879991,11.4311986 35.2608,11.7048 C35.4336009,11.9784014 35.52,12.3239979 35.52,12.7416 C35.52,13.1592021 35.3688015,13.5335983 35.0664,13.8648 C34.7639985,14.1960017 34.4040021,14.3616 33.9864,14.3616 C33.5687979,14.3616 33.2448012,14.3040006 33.0144,14.1888 C31.8623942,13.583997 30.681606,13.0944019 29.472,12.72 C28.262394,12.3455981 26.757609,12.1584 24.9576,12.1584 C23.157591,12.1584 21.5304073,12.460797 20.076,13.0656 C18.6215927,13.670403 17.4048049,14.5055947 16.4256,15.5712 C14.4959904,17.6736105 13.5312,20.4527827 13.5312,23.9088 C13.5312,27.3648173 14.4959904,30.1439895 16.4256,32.2464 C18.5280105,34.5216114 21.4223816,35.6592 25.1088,35.6592 C26.8080085,35.6592 28.262394,35.4720019 29.472,35.0976 C30.681606,34.7231981 31.8623942,34.233603 33.0144,33.6288 Z" id="C" fill="#FFFFFF"></path>
            <path d="M29.1185739,28.1503518 C29.3664389,28.0262549 29.6378716,27.9780002 29.9531993,27.9780002 C30.3771752,27.9780002 30.7565434,28.1525096 31.0470634,28.4706982 C31.3231578,28.7730872 31.4699993,29.1436874 31.4699993,29.5488002 C31.4699993,30.2137412 31.1589156,30.7510676 30.6078453,31.0258758 C29.8909708,31.4224447 29.1258994,31.7574013 28.3131622,32.0308456 C27.4596118,32.3180215 26.4585179,32.4588003 25.3091992,32.4588003 C24.1466141,32.4588003 23.0585737,32.266331 22.0494653,31.8800317 C21.0302507,31.4898636 20.1415528,30.9174141 19.3950527,30.1708599 C17.8039535,28.6115827 17.0099991,26.5234826 17.0099991,23.9544001 C17.0099991,21.3853177 17.8039535,19.2972176 19.3924239,17.7405293 C20.9343944,16.2144554 22.9251637,15.45 25.3199992,15.45 C26.4622083,15.45 27.4597709,15.5908324 28.3131622,15.8779547 C29.1211966,16.1498167 29.7487033,16.4061762 30.2035283,16.6535371 C30.7246048,16.9369296 31.0466635,17.1703054 31.224516,17.4519053 C31.3922891,17.717546 31.4699993,18.0283869 31.4699993,18.3708 C31.4699993,18.7705624 31.3220404,19.1369368 31.0470634,19.4381021 C30.7565434,19.7562907 30.3771752,19.9308001 29.9531993,19.9308001 C29.6378716,19.9308001 29.3664389,19.8825453 29.1185739,19.7584485 C28.5828936,19.4772163 28.0349351,19.250014 27.4742365,19.0764645 C26.9485564,18.9137539 26.268873,18.8292 25.4387992,18.8292 C24.6344887,18.8292 23.9185862,18.9622439 23.2859738,19.2253104 C22.6571347,19.4868078 22.1393428,19.8422154 21.7253505,20.2927362 C20.89485,21.1976098 20.4755991,22.4053026 20.4755991,23.9544001 C20.4755991,25.5034977 20.89485,26.7111904 21.7236343,27.6142006 C22.6253055,28.5899818 23.8710436,29.0796002 25.5143992,29.0796002 C26.2934476,29.0796002 26.9472678,28.9954452 27.4742365,28.8323358 C28.0349351,28.6587862 28.5828936,28.4315839 29.1185739,28.1503518 Z" id="C" fill="#FFFFFF" fill-rule="nonzero"></path>
        </g>
    </g>
</svg>